<?xml version="1.0" encoding="UTF-8" standalone="no"?>
<!-- Created with Inkscape (http://www.inkscape.org/) -->

<svg
   xmlns:dc="http://purl.org/dc/elements/1.1/"
   xmlns:cc="http://creativecommons.org/ns#"
   xmlns:rdf="http://www.w3.org/1999/02/22-rdf-syntax-ns#"
   xmlns:svg="http://www.w3.org/2000/svg"
   xmlns="http://www.w3.org/2000/svg"
   xmlns:sodipodi="http://sodipodi.sourceforge.net/DTD/sodipodi-0.dtd"
   xmlns:inkscape="http://www.inkscape.org/namespaces/inkscape"
   width="128"
   height="128"
   viewBox="0 0 128 128"
   id="svg4254"
   version="1.1"
   inkscape:version="0.91 r13725"
   sodipodi:docname="os_mac_alt.svg"
   inkscape:export-xdpi="90"
   inkscape:export-ydpi="90">
  <defs
     id="defs4256" />
  <sodipodi:namedview
     id="base"
     pagecolor="#ffffff"
     bordercolor="#666666"
     borderopacity="1.0"
     inkscape:pageopacity="0.0"
     inkscape:pageshadow="2"
     inkscape:zoom="5.6"
     inkscape:cx="43.395114"
     inkscape:cy="87.708868"
     inkscape:document-units="px"
     inkscape:current-layer="layer6"
     showgrid="false"
     units="px"
     inkscape:window-width="1366"
     inkscape:window-height="713"
     inkscape:window-x="0"
     inkscape:window-y="27"
     inkscape:window-maximized="1" />
  <metadata
     id="metadata4259">
    <rdf:RDF>
      <cc:Work
         rdf:about="">
        <dc:format>image/svg+xml</dc:format>
        <dc:type
           rdf:resource="http://purl.org/dc/dcmitype/StillImage" />
        <dc:title />
      </cc:Work>
    </rdf:RDF>
  </metadata>
  <g
     inkscape:groupmode="layer"
     id="layer5"
     inkscape:label="Layer 2"
     style="display:none">
    <path
       style="display:inline;fill:#4d4d57;fill-opacity:1;fill-rule:evenodd;stroke:none;stroke-width:0.60000002;stroke-linecap:round;stroke-linejoin:miter;stroke-miterlimit:4;stroke-dasharray:none;stroke-opacity:0.11764706"
       d="m 45.960553,25.778826 c -7.75347,0.01752 -20.17198,5.328651 -23.96875,16.330078 -4.42495,12.821507 -1.79097,24.1838 0.77148,32.544922 1.6479,5.376955 10.38589,22.861026 20.01563,27.457014 6.26464,2.99005 12.77927,-2.728798 20.21093,-3.484368 7.43167,0.75557 13.9463,6.474418 20.210942,3.484368 9.269168,-4.423898 17.692405,-20.756882 19.781255,-26.771467 A 21,21 0 0 1 86.989847,54.970232 21,21 0 0 1 100.19102,35.481951 C 94.758119,28.97501 86.005346,25.792179 80.019143,25.778826 c -0.25011,-5.54e-4 -0.49441,0.0082 -0.73437,0.01563 -6.6515,0.28958 -11.1656,4.30146 -16.29493,4.398437 -5.12933,-0.09701 -9.64342,-4.108857 -16.29492,-4.398437 -0.23995,-0.01 -0.48426,-0.01563 -0.73437,-0.01563 z"
       id="path4185-0"
       inkscape:connector-curvature="0" />
    <path
       style="display:inline;fill:#4d4d57;fill-opacity:1;fill-rule:evenodd;stroke:none;stroke-width:0.60000002;stroke-linecap:round;stroke-linejoin:miter;stroke-miterlimit:4;stroke-dasharray:none;stroke-opacity:0.11764706"
       d="m 62.069608,27.988211 c -0.945006,-11.01273 7.8283,-21.90547 20.456176,-23.30335 0.960067,10.45198 -6.966456,23.76714 -20.456176,23.30335 z"
       id="path4233-8"
       inkscape:connector-curvature="0"
       sodipodi:nodetypes="ccc" />
  </g>
  <g
     inkscape:groupmode="layer"
     id="layer6"
     inkscape:label="Layer 3"
     style="display:inline">
    <path
       style="display:inline;fill:#33333d;fill-opacity:1;fill-rule:evenodd;stroke:none;stroke-width:1px;stroke-linecap:butt;stroke-linejoin:miter;stroke-opacity:1"
       d="M 47.119141 26 C 39.433073 26.01725 27.12119 31.24655 23.357422 42.078125 C 18.970939 54.70168 21.582864 65.88906 24.123047 74.121094 C 25.756621 79.415034 34.41881 96.629271 43.964844 101.1543 C 50.175029 104.09819 56.632937 98.466556 64 97.722656 C 71.367064 98.466556 77.824972 104.09819 84.035156 101.1543 C 93.127059 96.844535 101.40062 81.047734 103.58008 74.978516 A 18 18 0 0 1 86 57 A 18 18 0 0 1 103.28125 39.025391 C 98.481278 30.263217 87.805615 26.015342 80.880859 26 C 80.632926 25.999454 80.390222 26.008265 80.152344 26.015625 C 73.558665 26.300735 69.084736 30.250223 64 30.345703 C 58.915257 30.250193 54.441336 26.300735 47.847656 26.015625 C 47.609786 26.005825 47.367083 26 47.119141 26 z "
       id="path4185-0-0-5-8" />
    <path
       style="display:inline;fill:#33333d;fill-opacity:1;fill-rule:evenodd;stroke:none;stroke-width:0.60000002;stroke-linecap:round;stroke-linejoin:miter;stroke-miterlimit:4;stroke-dasharray:none;stroke-opacity:0.11764706"
       d="M 62.069608,27.98821 C 61.124602,16.97548 69.897908,6.08274 82.525784,4.68486 83.485851,15.13684 75.559328,28.452 62.069608,27.98821 Z"
       id="path4233-8-5"
       inkscape:connector-curvature="0"
       sodipodi:nodetypes="ccc" />
  </g>
  <g
     inkscape:groupmode="layer"
     id="layer1"
     inkscape:label="Layer 4"
     style="display:none">
    <path
       style="display:inline;fill:#3c4650;fill-opacity:0.78431373;fill-rule:evenodd;stroke:none;stroke-width:1px;stroke-linecap:butt;stroke-linejoin:miter;stroke-opacity:1"
       d="m 47.118506,26.000029 c -7.686068,0.01725 -19.996599,5.245976 -23.760367,16.077551 -4.386483,12.623555 -1.774351,23.812099 0.765832,32.044133 1.633574,5.29394 10.294922,22.507914 19.840956,27.032937 6.210185,2.94389 12.668009,-2.687563 20.035072,-3.431463 7.367064,0.7439 13.824888,6.375353 20.035072,3.431463 9.546025,-4.525023 18.207379,-21.738997 19.840949,-27.032937 2.54019,-8.232034 5.15232,-19.420578 0.76584,-32.044133 -3.76377,-10.831575 -16.074299,-16.060522 -23.760376,-16.077551 -0.247933,-5.46e-4 -0.491056,0.0076 -0.728934,0.01496 -6.593679,0.28511 -11.067815,4.235283 -16.152551,4.330763 -5.084743,-0.09551 -9.558879,-4.045653 -16.152559,-4.330763 -0.23787,-0.0098 -0.480992,-0.01496 -0.728934,-0.01496 z"
       id="path4185-0-0-5"
       inkscape:connector-curvature="0" />
  </g>
</svg>
